<?xml version="1.0" standalone="no"?>
<!DOCTYPE svg PUBLIC "-//W3C//DTD SVG 1.1//EN" "http://www.w3.org/Graphics/SVG/1.1/DTD/svg11.dtd" >
<svg xmlns="http://www.w3.org/2000/svg">
<metadata></metadata>
<defs>
<font id="aauxprothin" horiz-adv-x="1001" >
<font-face units-per-em="2048" ascent="1587" descent="-461" />
<missing-glyph horiz-adv-x="552" />
<glyph horiz-adv-x="2048" />
<glyph horiz-adv-x="2048" />
<glyph unicode="&#xd;" horiz-adv-x="681" />
<glyph horiz-adv-x="1349" d="M106 682v57h93v691h411q127 0 214 -13.5t166 -52.5t126 -114.5t64 -194.5q16 -127 16 -340q0 -211 -16 -338q-16 -119 -63.5 -196t-126.5 -115.5t-166 -52t-214 -13.5h-411v682h-93zM256 57h354q74 0 123 3t109.5 13.5t101.5 32t80 56.5t63.5 90t34.5 131q17 125 17 332 q0 211 -17 332q-12 90 -47 152.5t-79 96t-113.5 52t-128 22.5t-146.5 4h-352v-635h350v-57h-350v-625z" />
<glyph horiz-adv-x="1062" d="M122.5 477.5q0.5 495.5 409.5 495.5q98 0 240 -58l-139 304h-252v45h233l-125 272h50l123 -272h182v-45h-162q127 -266 145 -304q6 -14 54 -96q59 -113 59 -342q0 -496 -408 -495q-410 0 -409.5 495.5zM176 477q0 -94 14.5 -165.5t50 -139.5t109.5 -103.5t180.5 -35.5 t180 35.5t110.5 103.5t51.5 139.5t14.5 165.5t-14.5 167t-50.5 139.5t-109.5 103.5t-180.5 37q-109 0 -182.5 -37t-109 -103.5t-50 -139.5t-14.5 -167z" />
<glyph horiz-adv-x="1015" d="M72 551v51l82 35v793h59v-766l365 157v-51l-365 -160v-555h741v-55h-825l16 -6q4 -8 6.5 140.5t2.5 299.5v152z" />
<glyph horiz-adv-x="509" d="M72 573v52l129 51v754h57v-732l180 74v-51l-180 -74v-436q0 -143 113 -158v-51q-170 14 -170 209v414z" />
<glyph horiz-adv-x="1218" d="M96 326l58 8q39 -162 171 -230.5t310 -68.5q170 0 302 90t132 258q0 137 -95 215t-230.5 110.5t-270.5 64.5t-230.5 111t-95.5 216q0 168 129.5 256t313.5 88q342 0 475 -258l-51 -23q-119 223 -424 223q-94 0 -176 -23.5t-145.5 -91t-63.5 -171.5q0 -88 51 -147.5 t132 -91.5t179.5 -54.5t196.5 -50t179 -67.5t132 -117.5t51 -188.5q0 -186 -144 -293.5t-347 -107.5q-461 0 -539 344zM365 1884h81l172 -285l173 285h81l-223 -332h-61z" />
<glyph horiz-adv-x="915" d="M88 225l51 8q55 -201 338 -200q115 0 209 57t94 174q0 92 -67.5 143.5t-164.5 73t-194.5 44t-165 77.5t-67.5 152q0 119 94 179t229 60q242 0 340 -170l-47 -22q-82 139 -293 139q-61 0 -116.5 -12.5t-104.5 -57.5t-49 -116q0 -68 49 -111t122 -60.5t159 -40t158.5 -47 t122 -83t49.5 -148.5q0 -131 -105.5 -206.5t-251.5 -75.5q-147 0 -252.5 59t-136.5 184zM213 1391h84l172 -285l170 285h84l-225 -334h-60z" />
<glyph horiz-adv-x="1136" d="M68 1430h63l438 -889l439 889h63l-473 -957v-473h-57v473zM471 1630l152 256h82l-170 -256h-64z" />
<glyph horiz-adv-x="897" d="M53 979h56l350 -913l350 913h55l-473 -1239q-76 -193 -258 -191h-16v52h16q150 0 207 157l90 234zM371 1159l153 256h82l-172 -256h-63z" />
<glyph horiz-adv-x="1277" d="M195 0v1430h57v-312h461q463 0 463 -379t-463 -379h-461v-360h-57zM252 416h461q70 0 125 8t109 29.5t90 56.5t58.5 93.5t22.5 136t-22.5 136t-58.5 93.5t-90 56.5t-109.5 29.5t-124.5 8h-461v-647z" />
<glyph horiz-adv-x="1040" d="M184 -451v1881h54v-617q143 166 319 166q391 0 391 -493.5t-389 -493.5q-92 0 -166 30.5t-155 124.5v-598h-54zM238 328q0 -129 94 -207t225 -78q104 0 176 38t105.5 106.5t46 138t12.5 159.5t-12.5 160t-46 139.5t-105 107.5t-176.5 38q-131 0 -225 -79t-94 -208v-315z " />
<glyph horiz-adv-x="1169" d="M92 0v66l907 1308h-829v56h887v-74l-901 -1299h901v-57h-965zM365 1884h81l172 -285l173 285h81l-223 -332h-61z" />
<glyph horiz-adv-x="913" d="M82 0v78l688 850h-635v51h686v-72l-692 -856h692v-51h-739zM213 1391h84l172 -285l170 285h84l-225 -334h-60z" />
<glyph horiz-adv-x="1593" d="M92 1309l223 133h15v-862h-35v809l-186 -109zM393 0l619 1430h39l-619 -1430h-39zM1026 0v47q70 184 211 320q125 117 171 179t46 122q0 86 -59.5 123.5t-122.5 37.5q-119 0 -182 -112l-33 16q76 131 215 131q90 0 154.5 -53t64.5 -143q0 -63 -46 -131t-181 -197 q-113 -106 -205 -303h432v-37h-465z" />
<glyph horiz-adv-x="1515" d="M92 1309l223 133h15v-862h-35v809l-186 -109zM393 0l621 1430h39l-621 -1430h-39zM969 233v50l362 579h43l-373 -592h345v355l36 -9v-346h62v-37h-62v-233h-36v233h-377z" />
<glyph horiz-adv-x="524" d="M92 1307l262 135h17v-881h-43v828l-215 -113z" />
<glyph horiz-adv-x="1681" d="M98 725l35 12q23 -57 73 -91t109 -34q82 0 139.5 58.5t57.5 142.5q0 82 -57.5 141.5t-139.5 59.5h-20v35h12q78 0 133.5 52t55.5 128t-55.5 128t-133.5 52q-123 0 -174 -111l-33 11q25 61 81.5 99t125.5 38q94 0 159.5 -63.5t65.5 -153.5q0 -109 -124 -197 q141 -76 141 -219q0 -98 -68.5 -168t-165.5 -70q-72 0 -131 41t-86 109zM561 0l619 1430h39l-619 -1430h-39zM1135 233v50l360 579h43l-371 -592h344v355l37 -9v-346h62v-37h-62v-233h-37v233h-376z" />
<glyph horiz-adv-x="675" d="M100 709l37 12q23 -57 77 -92t118 -35q88 0 150.5 60.5t62.5 144.5t-62.5 144.5t-150.5 60.5h-23v36h15q84 0 143 53.5t59 131.5q0 76 -59 130t-143 54q-61 0 -112.5 -31.5t-74.5 -83.5l-37 13q29 61 89.5 100t134.5 39q100 0 170.5 -65.5t70.5 -155.5q0 -113 -133 -201 q152 -94 152 -225q0 -100 -74 -171t-178 -71q-78 0 -141.5 41t-90.5 111z" />
<glyph horiz-adv-x="681" d="M92 561v47q78 193 225 326q135 121 184.5 184.5t49.5 124.5q0 88 -63.5 126t-133.5 38q-125 0 -194 -115l-35 17q80 135 229 135q96 0 166 -54.5t70 -146.5q0 -66 -49 -135.5t-197 -200.5q-123 -111 -217 -309h463v-37h-498z" />
<glyph horiz-adv-x="563" d="M256 -156v752h51v-752h-51zM256 836v751h51v-751h-51z" />
<glyph horiz-adv-x="970" d="M82 508v104h807v-104h-807z" />
<glyph horiz-adv-x="890" d="M133 291l270 270l-270 268l43 43l268 -270l271 270l41 -43l-269 -268l269 -270l-41 -41l-271 268l-268 -268z" />
<glyph unicode=" "  horiz-adv-x="552" />
<glyph unicode="&#x09;" horiz-adv-x="552" />
<glyph unicode="&#xa0;" horiz-adv-x="552" />
<glyph unicode="!" horiz-adv-x="573" d="M219 51q0 27 19.5 47.5t48 20.5t48 -20.5t19.5 -47.5q0 -29 -19.5 -48t-48 -19t-48 19.5t-19.5 47.5zM242 737v693h88v-693l-27 -370h-31z" />
<glyph unicode="&#x22;" horiz-adv-x="696" d="M143 1120v328q0 20 14.5 34.5t35 14.5t35 -14.5t14.5 -34.5v-328h-99zM455 1120v328q0 20 14 34.5t34.5 14.5t35 -14.5t14.5 -34.5v-328h-98z" />
<glyph unicode="#" horiz-adv-x="1417" d="M119 451l12 53h266l90 422h-266l10 53h269l96 451h53l-96 -451h424l96 451h53l-96 -451h268l-12 -53h-268l-90 -422h268l-10 -53h-268l-97 -451h-53l96 451h-424l-98 -451h-51l96 451h-268zM451 504h426l90 422h-426z" />
<glyph unicode="$" horiz-adv-x="1036" d="M102 406l52 8q59 -221 348 -236v563q-68 14 -108 26.5t-94 35t-83 50.5t-50.5 73t-21.5 102q0 141 105.5 213t251.5 72v117h57v-119q227 -16 326 -191l-45 -22q-84 145 -281 162v-480q90 -20 143.5 -38.5t117 -54.5t93 -93t29.5 -137q0 -152 -112.5 -239t-270.5 -93v-125 h-57v127q-147 6 -255 74.5t-145 204.5zM195 1028q0 -55 22.5 -95t72.5 -66.5t93 -41t119 -32.5v469q-125 0 -216 -57.5t-91 -176.5zM559 176q135 6 233.5 79t98.5 202q0 66 -25.5 113.5t-79 77.5t-100.5 46.5t-127 34.5v-553z" />
<glyph unicode="%" horiz-adv-x="1613" d="M119 1059q0 166 67.5 278.5t217 112.5t217 -111.5t67.5 -279.5t-67.5 -279.5t-217 -111.5t-217 111.5t-67.5 279.5zM168 1059q0 -348 235.5 -348t235.5 348q0 346 -235.5 346t-235.5 -346zM469 0l621 1430h55l-621 -1430h-55zM926 371q0 168 67.5 279.5t217 111.5 t217 -111.5t67.5 -279.5t-67.5 -279.5t-217 -111.5t-217 111.5t-67.5 279.5zM975 371q0 -346 235.5 -346t235.5 346t-235.5 346t-235.5 -346z" />
<glyph unicode="&#x26;" horiz-adv-x="1329" d="M100 356q0 154 74 253.5t240 195.5q-154 221 -154 366q0 119 76 196t194.5 77t187 -72t68.5 -190q0 -123 -73.5 -209t-223.5 -182q219 -299 488 -551q109 176 115 383h57q-6 -238 -129 -422q121 -107 184 -154l-28 -47q-82 59 -189 154q-172 -174 -444 -174 q-188 0 -315.5 99t-127.5 277zM158 354q0 -152 115.5 -237.5t269.5 -85.5q235 0 401 164q-266 250 -502 569q-152 -92 -218 -178t-66 -232zM317 1171q0 -143 146 -342q88 57 135 95.5t90 108t43 149.5q0 92 -53 149.5t-148 57.5q-96 0 -154.5 -60.5t-58.5 -157.5z" />
<glyph unicode="'" horiz-adv-x="421" d="M160 1120v328q0 20 14 34.5t34.5 14.5t35 -14.5t14.5 -34.5v-328h-98z" />
<glyph unicode="(" horiz-adv-x="647" d="M123 714.5q0 192.5 85 388t230 327.5h68q-145 -129 -234.5 -330t-89.5 -385.5t89.5 -385t234.5 -329.5h-68q-147 133 -231 327.5t-84 387z" />
<glyph unicode=")" horiz-adv-x="647" d="M164 0q145 129 233 329.5t88 385.5q0 186 -88 385.5t-233 329.5h65q145 -131 230.5 -327t85.5 -388.5t-84 -387t-232 -327.5h-65z" />
<glyph unicode="*" horiz-adv-x="866" d="M98 1165l19 56l297 -107l-8 316h55l-8 -316l297 107l16 -56l-301 -88l192 -252l-47 -32l-178 262l-176 -262l-47 32l192 252z" />
<glyph unicode="+" horiz-adv-x="1005" d="M92 532v58h381v381h59v-381h381v-58h-381v-382h-59v382h-381z" />
<glyph unicode="," horiz-adv-x="430" d="M154 55q0 27 18 45.5t43 18.5q33 0 53.5 -18.5t20.5 -45.5v-57l-135 -211v268z" />
<glyph unicode="-" horiz-adv-x="792" d="M133 532v58h526v-58h-526z" />
<glyph unicode="." horiz-adv-x="444" d="M154 57.5q0 28.5 19.5 48t48 19.5t49 -19.5t20.5 -48t-20.5 -48t-49 -19.5t-48 19.5t-19.5 48z" />
<glyph unicode="/" horiz-adv-x="825" d="M53 -156l658 1741h63l-659 -1741h-62z" />
<glyph unicode="0" horiz-adv-x="1140" d="M102 714.5q0 104.5 11.5 200t44 193.5t84 170t135.5 117t194 45q109 0 194 -45t135 -117t83 -170t44 -193.5t11 -199.5q0 -133 -20.5 -251t-69.5 -231.5t-145 -180t-232 -66.5q-111 0 -194.5 46t-135 117.5t-84 171t-44 194.5t-11.5 199.5zM158 715q0 -70 5 -135.5 t19.5 -147.5t45 -148.5t73.5 -125t112.5 -91t157.5 -32.5t158 32.5t113 91t73.5 125t45 148.5t19.5 147.5t5 135.5q0 86 -7 164.5t-33.5 177t-70 168t-121 118t-182 48.5t-183.5 -48.5t-122 -118t-68.5 -168t-32.5 -177t-7 -164.5z" />
<glyph unicode="1" horiz-adv-x="722" d="M104 1202l297 228h56v-1430h-60v1358l-262 -195z" />
<glyph unicode="2" horiz-adv-x="1124" d="M123 0v53q68 299 389 559q39 31 130 91.5t135 97.5t85 112.5t41 169.5q0 147 -106.5 229.5t-259.5 82.5q-231 0 -340 -191l-45 21q53 106 156.5 163.5t228.5 57.5q186 0 305 -96.5t119 -268.5q0 -84 -23 -149.5t-71 -115.5t-91 -84t-115.5 -82t-113.5 -81 q-133 -104 -235.5 -238t-131.5 -278h821v-53h-878z" />
<glyph unicode="3" horiz-adv-x="1042" d="M111 231l51 17q43 -104 137 -157.5t211 -53.5q156 0 264.5 96t108.5 252q0 164 -103.5 251t-271.5 91v41q154 4 247 83t93 228q0 135 -106.5 227.5t-243.5 92.5q-104 0 -193.5 -52.5t-132.5 -144.5l-49 17q51 109 152.5 168t226.5 59q168 0 283.5 -101.5t115.5 -265.5 q0 -256 -246 -331q285 -82 285 -363q0 -184 -122 -291.5t-308 -107.5q-139 0 -244.5 60t-154.5 185z" />
<glyph unicode="4" horiz-adv-x="1110" d="M92 389v70l625 971h59l-633 -988h664v623l53 -10v-613h148v-53h-148v-389h-53v389h-715z" />
<glyph unicode="5" horiz-adv-x="1081" d="M131 227l51 17q41 -100 133.5 -153.5t206.5 -53.5q193 0 297.5 121t104.5 309q0 184 -102.5 305t-293.5 121q-170 0 -299 -113h-63v650h715v-50h-668v-557q150 119 313 119q215 0 334 -130t119 -345t-122 -348t-337 -133q-135 0 -239.5 62.5t-149.5 178.5z" />
<glyph unicode="6" horiz-adv-x="1097" d="M96 471q0 276 145.5 535.5t376.5 423.5h72q-432 -305 -536 -826q127 262 403 262q195 0 316.5 -127.5t121.5 -322.5q0 -184 -127 -306t-313 -122q-207 0 -333 137t-126 346zM158 424q0 -158 120.5 -272.5t278.5 -114.5q162 0 273.5 109.5t111.5 269.5q0 170 -107.5 284.5 t-277.5 114.5q-160 0 -279.5 -115.5t-119.5 -275.5z" />
<glyph unicode="7" horiz-adv-x="1005" d="M82 1253v177h842v-54q-106 -127 -186.5 -249.5t-159 -292.5t-119.5 -382t-37 -452h-68q0 240 40 449.5t117 377.5t158 294t189 255h-721v-123h-55z" />
<glyph unicode="8" horiz-adv-x="1085" d="M102 385q0 281 281 365q-123 39 -181.5 132t-58.5 197q0 162 114 262.5t286 100.5q170 0 284.5 -100.5t114.5 -262.5q0 -104 -56.5 -194t-185.5 -135q283 -84 283 -365q0 -180 -126 -289.5t-314 -109.5q-190 0 -315.5 109.5t-125.5 289.5zM160 385q0 -156 111.5 -252 t271.5 -96q158 0 270.5 96t112.5 252q0 162 -107.5 251t-275.5 89q-170 0 -276.5 -87t-106.5 -253zM199 1079q0 -147 97 -228t247 -81q152 0 247 79.5t95 229.5q0 137 -101.5 225.5t-241 88.5t-241.5 -88t-102 -226z" />
<glyph unicode="9" horiz-adv-x="1062" d="M92 1016q0 176 125 302t303 126q205 0 323 -138.5t118 -347.5q0 -264 -138.5 -525t-380.5 -433h-69q449 336 528 825q-127 -236 -381 -235q-184 0 -306 123t-122 303zM143 1016q0 -152 111 -264.5t266 -112.5q164 0 272.5 108.5t108.5 268.5q0 154 -111.5 266.5 t-269.5 112.5t-267.5 -113t-109.5 -266z" />
<glyph unicode=":" horiz-adv-x="444" d="M154 51q0 27 19.5 47.5t48 20.5t49 -19.5t20.5 -48t-20.5 -48t-49 -19.5t-48 19.5t-19.5 47.5zM154 712.5q0 28.5 19.5 49t48 20.5t49 -20.5t20.5 -49t-20.5 -48t-49 -19.5t-48 19.5t-19.5 48z" />
<glyph unicode=";" horiz-adv-x="464" d="M154 55q0 27 18 45.5t43 18.5q33 0 53.5 -18.5t20.5 -45.5v-57l-135 -211v268zM154 712.5q0 28.5 19.5 49t48 20.5t49 -20.5t20.5 -49t-20.5 -48t-49 -19.5t-48 19.5t-19.5 48z" />
<glyph unicode="&#x3c;" horiz-adv-x="915" d="M111 715l604 715h69l-602 -715l602 -715h-69z" />
<glyph unicode="=" horiz-adv-x="1046" d="M113 258v57h821v-57h-821zM113 709v57h821v-57h-821z" />
<glyph unicode="&#x3e;" horiz-adv-x="915" d="M131 0l602 715l-602 715h70l604 -715l-604 -715h-70z" />
<glyph unicode="?" horiz-adv-x="958" d="M63 1118q10 147 129 237.5t281 90.5q170 0 287 -100.5t117 -262.5q0 -76 -28 -130t-57.5 -76.5t-89.5 -57.5q-102 -59 -137 -100q-68 -72 -73 -199l-9 -151h-24q-12 111 -13 151q0 127 45.5 191.5t129.5 115.5q100 59 133 91q66 66 65 165q0 143 -100.5 225.5 t-245.5 82.5q-133 0 -239.5 -73t-116.5 -200h-54zM406 51.5q0 28.5 20 48t49 19.5t48.5 -20.5t19.5 -47.5q0 -29 -19.5 -48t-48.5 -19t-49 19.5t-20 48z" />
<glyph unicode="@" horiz-adv-x="1433" d="M123 471q0 147 55 313t149.5 311.5t237 242t299.5 96.5q215 0 328 -180.5t113 -422.5q0 -70 -35 -221l-10 -41l-37 -569l-56 4l19 313q-66 -147 -171.5 -244.5t-246.5 -97.5q-137 0 -209 112t-72 255q0 131 57.5 275.5t170 254t248.5 109.5q195 0 272 -266q14 78 14 135 q0 133 -41 250t-132 197.5t-216 80.5q-143 0 -274 -92t-217 -230t-137.5 -294t-51.5 -291t50.5 -258t150.5 -199l-31 -47q-113 78 -170 215t-57 289zM547 344q0 -121 54 -216t167 -95q117 0 218 97t154.5 225.5t53.5 234.5q0 117 -60.5 225.5t-168.5 108.5 q-119 0 -219.5 -101.5t-149.5 -232.5t-49 -246z" />
<glyph unicode="A" horiz-adv-x="1263" d="M33 0l549 1430h100l549 -1430h-60l-174 453h-731l-174 -453h-59zM287 504h690l-346 899z" />
<glyph unicode="B" horiz-adv-x="1241" d="M154 0v1430h479q209 0 334 -87.5t125 -277.5q0 -227 -240 -330q154 -43 225.5 -138t71.5 -218q0 -379 -477 -379h-518zM211 55h461q420 0 420 324q0 330 -420 330h-461v-654zM211 752h436q387 0 387 313q0 311 -401 311h-422v-624z" />
<glyph unicode="C" horiz-adv-x="1173" d="M92 714.5q0 149.5 29 275.5t92 231.5t176 166t266 60.5q135 0 229.5 -49t186.5 -156l-43 -35q-82 94 -166 138.5t-207 44.5q-147 0 -250.5 -59.5t-156.5 -163t-75.5 -214t-22.5 -239.5t22.5 -239.5t75.5 -214t156.5 -163t250.5 -59.5q123 0 207 44t166 138l43 -35 q-92 -106 -186 -155t-230 -49q-154 0 -266.5 60t-175.5 165.5t-92 231.5t-29 275.5z" />
<glyph unicode="D" horiz-adv-x="1277" d="M154 0v1430h411q86 0 156 -7.5t125 -24t98 -34.5t76 -52t55.5 -63.5t36.5 -81t23.5 -92.5t13.5 -107.5t5 -118.5t1 -134q0 -92 -1 -148.5t-7 -129t-17.5 -115.5t-32 -95.5t-51 -82t-74.5 -61.5t-102.5 -47.5t-134.5 -25.5t-170 -10h-411zM211 57h354q193 0 303.5 40 t163.5 128q16 27 27.5 57.5t18.5 71.5t11.5 70t6.5 80t2 70.5v76v64.5v64.5v75.5t-2 71.5t-6.5 81t-11.5 69.5t-18 72t-28 57q-53 88 -163.5 128t-303.5 40h-354v-1317z" />
<glyph unicode="E" horiz-adv-x="1144" d="M154 0v1430h888v-56h-831v-606h727v-51h-727v-662h831v-55h-888z" />
<glyph unicode="F" horiz-adv-x="1103" d="M154 0v1430h868v-56h-811v-606h727v-49h-727v-719h-57z" />
<glyph unicode="G" horiz-adv-x="1265" d="M92 714.5q0 145.5 32 272.5t96.5 232.5t177 167t261.5 61.5q135 0 229.5 -49t186.5 -156l-43 -35q-82 94 -166 138.5t-207 44.5q-145 0 -249.5 -59.5t-158.5 -162t-77.5 -214t-23.5 -240.5q0 -98 13 -188.5t48 -181.5t89 -157.5t144.5 -107.5t204.5 -41q424 0 424 625 h-385v57h442v-721h-57v293q-57 -170 -160.5 -240.5t-263.5 -70.5q-150 0 -261.5 61t-173.5 167.5t-92 232.5t-30 271.5z" />
<glyph unicode="H" horiz-adv-x="1318" d="M154 0v1430h57v-662h897v662h57v-1430h-57v717h-897v-717h-57z" />
<glyph unicode="I" horiz-adv-x="452" d="M197 0v1430h57v-1430h-57z" />
<glyph unicode="J" horiz-adv-x="1067" d="M68 248l55 14q39 -111 135 -165t223 -54q201 0 293 92t92 287v1008h58v-1010q0 -434 -443 -434q-150 0 -260 66.5t-153 195.5z" />
<glyph unicode="K" horiz-adv-x="1073" d="M154 0v1430h57v-1430h-57zM219 715l651 715h74l-647 -711l700 -719h-84z" />
<glyph unicode="L" horiz-adv-x="1009" d="M154 0v1430h57v-1381h747v-49h-804z" />
<glyph unicode="M" horiz-adv-x="1470" d="M154 0v1430h65l516 -1381l516 1381h66v-1430h-57v1309l-488 -1309h-76l-485 1305v-1305h-57z" />
<glyph unicode="N" horiz-adv-x="1269" d="M154 0v1430h77l828 -1354v1354h57v-1430h-76l-829 1354v-1354h-57z" />
<glyph unicode="O" horiz-adv-x="1302" d="M92 714.5q0 147.5 29 273.5t91 232.5t174 167t265.5 60.5t265 -60.5t174 -167t91 -231t28.5 -274.5q0 -147 -28.5 -273.5t-91 -233t-174 -166.5t-265 -60t-265.5 60t-174 166.5t-91 232.5t-29 273.5zM150 714.5q0 -100.5 12 -190.5t47 -181t89 -156.5t144 -106.5t209 -41 t209 41t144.5 106.5t89 156.5t47 181t12.5 190.5t-12.5 190.5t-47 181.5t-89 157t-144.5 106.5t-209 41t-209 -41t-144 -106.5t-89 -157t-47 -181.5t-12 -190.5z" />
<glyph unicode="P" horiz-adv-x="1206" d="M154 0v1430h518q463 0 463 -379t-463 -379h-461v-672h-57zM211 723h461q186 0 295.5 72t109.5 256q0 96 -31.5 161.5t-91 99.5t-127 47t-155.5 13h-461v-649z" />
<glyph unicode="Q" horiz-adv-x="1292" d="M92 714.5q0 147.5 29 273.5t91 232.5t174 167t265.5 60.5t265 -60.5t174 -167t91 -231t28.5 -274.5q0 -176 -32.5 -310.5t-128.5 -250.5l125 -154h-74l-92 113q-164 -131 -357 -131q-154 0 -265.5 60t-173.5 166.5t-91 232.5t-29 273.5zM150 714.5q0 -100.5 12 -190.5 t47 -181t89 -156.5t144 -106.5t209 -41q178 0 320 117q-135 154 -293 176v51q186 -25 334 -186q88 117 114.5 239.5t26.5 278.5q0 100 -12.5 190t-47 181.5t-89 157t-144.5 106.5t-209 41t-209 -41t-144 -106.5t-89 -157t-47 -181.5t-12 -190.5z" />
<glyph unicode="R" horiz-adv-x="1214" d="M154 0v1430h479q207 0 325.5 -91.5t118.5 -283.5q0 -346 -430 -373q72 -47 135 -158l312 -524h-68l-309 522q-96 160 -217 160h-289v-682h-57zM211 735h422q387 1 387 320q0 317 -387 317h-422v-637z" />
<glyph unicode="S" horiz-adv-x="1218" d="M96 326l58 8q39 -162 171 -230.5t310 -68.5q170 0 302 90t132 258q0 137 -95 215t-230.5 110.5t-270.5 64.5t-230.5 111t-95.5 216q0 168 129.5 256t313.5 88q342 0 475 -258l-51 -23q-119 223 -424 223q-94 0 -176 -23.5t-145.5 -91t-63.5 -171.5q0 -88 51 -147.5 t132 -91.5t179.5 -54.5t196.5 -50t179 -67.5t132 -117.5t51 -188.5q0 -186 -144 -293.5t-347 -107.5q-461 0 -539 344z" />
<glyph unicode="T" horiz-adv-x="1093" d="M41 1374v56h1012v-56h-478v-1374h-57v1374h-477z" />
<glyph unicode="U" horiz-adv-x="1298" d="M143 612v818h58v-818q0 -121 18.5 -214t64.5 -179t138 -133t227 -47t227.5 47t138.5 133t64.5 179.5t18.5 213.5v818h57v-818q0 -299 -114.5 -464.5t-391.5 -165.5q-506 0 -506 630z" />
<glyph unicode="V" horiz-adv-x="1130" d="M41 1430h59l465 -1360l465 1360h60l-486 -1430h-78z" />
<glyph unicode="W" horiz-adv-x="1566" d="M68 1430h59l309 -1332l312 1332h69l311 -1332l312 1332h57l-334 -1430h-69l-312 1331l-311 -1331h-70z" />
<glyph unicode="X" horiz-adv-x="1161" d="M72 0l475 739l-445 691h68l412 -639l409 639h68l-445 -691l476 -739h-68l-440 686l-443 -686h-67z" />
<glyph unicode="Y" horiz-adv-x="1136" d="M68 1430h63l438 -889l439 889h63l-473 -957v-473h-57v473z" />
<glyph unicode="Z" horiz-adv-x="1169" d="M92 0v66l907 1308h-829v56h887v-74l-901 -1299h901v-57h-965z" />
<glyph unicode="[" horiz-adv-x="550" d="M143 -125v1679h306v-34h-240v-1608h240v-37h-306z" />
<glyph unicode="\" horiz-adv-x="825" d="M53 1585h62l659 -1741h-63z" />
<glyph unicode="]" horiz-adv-x="550" d="M143 -88h242v1608h-242v34h306v-1679h-306v37z" />
<glyph unicode="^" horiz-adv-x="1050" d="M123 813l356 617h94l357 -617l-49 -29l-355 617l-356 -617z" />
<glyph unicode="_" horiz-adv-x="1083" d="M51 0h981v-47h-981v47z" />
<glyph unicode="`" horiz-adv-x="618" d="M178 1415h92l172 -299h-71z" />
<glyph unicode="a" horiz-adv-x="954" d="M92 266q0 129 93.5 203t232.5 74h153q139 0 201 65v117q0 100 -86 161.5t-186 61.5q-98 0 -181 -40t-118 -126l-49 17q88 200 351 200h3q125 0 222 -76.5t97 -191.5v-584l29 -145l-45 -12l-31 129q-88 -76 -165.5 -107.5t-176.5 -31.5q-152 0 -248 74.5t-96 211.5z M147 266q0 -117 85 -176t204 -59h2q185 0 334 149v363q-61 -33 -93 -41t-81 -8h-180q-111 0 -191 -57.5t-80 -170.5z" />
<glyph unicode="b" horiz-adv-x="999" d="M143 0v1430h54v-617q102 182 319 182q391 0 391 -508q0 -505 -387 -505h-2q-223 0 -321 180v-162h-54zM197 319q0 -131 94 -208.5t225 -77.5q104 0 176 40t105.5 110.5t46 142t12.5 161.5q0 457 -340 457q-131 0 -225 -79t-94 -210v-336z" />
<glyph unicode="c" horiz-adv-x="946" d="M92 489.5q0 223.5 111.5 365.5t326.5 142q102 0 173 -30.5t141 -102.5l-39 -33q-115 121 -275 121q-137 0 -225 -69.5t-120.5 -169t-32.5 -224.5q0 -92 19 -170.5t61 -145.5t118 -105.5t180 -38.5q160 0 275 121l39 -35q-70 -72 -140.5 -101.5t-173.5 -29.5 q-215 0 -326.5 141t-111.5 364.5z" />
<glyph unicode="d" horiz-adv-x="1021" d="M92 489q0 506 397 506q197 0 316 -172v607h53v-1276l31 -150l-49 -14l-37 162q-106 -170 -318 -170q-113 0 -192.5 38.5t-121.5 111.5t-60.5 159t-18.5 198zM147 489q0 -92 12.5 -163.5t46.5 -142t104.5 -110.5t174.5 -40q133 0 226.5 77.5t93.5 208.5v336q0 129 -92 209 t-224 80q-104 0 -175.5 -39t-105.5 -110.5t-47.5 -143t-13.5 -162.5z" />
<glyph unicode="e" horiz-adv-x="976" d="M92 489q0 231 99.5 368.5t320.5 137.5q188 0 280.5 -122.5t92.5 -319.5v-61h-735q2 -219 90 -339t292 -120q180 0 275 104l41 -33q-110 -122 -313 -122h-3q-440 0 -440 507zM150 543h681q-8 401 -319 401q-336 0 -362 -401z" />
<glyph unicode="f" horiz-adv-x="585" d="M102 928v51h115v55q0 178 59 262q87 124 269 134v-52q-156 -10 -223 -108q-53 -76 -54 -238v-53h240v-51h-240v-928h-51v928h-115z" />
<glyph unicode="g" horiz-adv-x="999" d="M92 -135q0 33 8 57l50 -16q-4 -29 -5 -41q0 -68 61.5 -117t134.5 -68.5t138 -19.5q139 0 267 81t128 218q0 76 -57 115t-129 39q-61 0 -180 -27t-178 -27q-68 0 -110 31t-42 84q0 117 148 211q-180 90 -181 297q0 313 338 313q170 0 258 -80q104 27 117 111h53 q-14 -109 -137 -149q49 -96 49 -195q0 -313 -340 -313q-55 0 -116 10q-141 -84 -142 -193q0 -84 99 -84q63 0 183 30t181 30q102 0 171 -55.5t69 -147.5q0 -152 -140.5 -248t-308.5 -96q-150 0 -268.5 64.5t-118.5 185.5zM271.5 478.5q74.5 -68.5 211.5 -68.5 q139 0 214 68.5t75 203.5q0 266 -287 266q-288 0 -288 -264q0 -137 74.5 -205.5z" />
<glyph unicode="h" horiz-adv-x="1030" d="M143 0v1430h54v-615q115 182 319 182q391 0 391 -434v-563h-51v563q0 182 -75.5 282.5t-264.5 100.5q-117 0 -218 -75.5t-101 -188.5v-682h-54z" />
<glyph unicode="i" horiz-adv-x="413" d="M141 1364q0 29 19.5 47.5t46.5 18.5q29 0 48 -19.5t19 -46.5q0 -29 -20.5 -48.5t-47 -19.5t-46 19.5t-19.5 48.5zM178 0v979h55v-979h-55z" />
<glyph unicode="j" horiz-adv-x="471" d="M-41 -399q285 14 285 342v1036h55v-1036q0 -377 -340 -394v52zM207 1364q0 29 19.5 47.5t45.5 18.5q29 0 48.5 -19.5t19.5 -46.5q0 -29 -20.5 -48.5t-47 -19.5t-46 19.5t-19.5 48.5z" />
<glyph unicode="k" horiz-adv-x="854" d="M143 0v1430h54v-1430h-54zM211 520l440 459h66l-436 -455l518 -524h-74z" />
<glyph unicode="l" horiz-adv-x="411" d="M143 211v1219h54v-1219q0 -141 143 -158v-51q-197 14 -197 209z" />
<glyph unicode="m" horiz-adv-x="1576" d="M143 0v979h52v-158q96 174 284 174q113 0 191 -51t127 -180q78 231 313 231q344 0 344 -438v-557h-51v557q0 82 -11.5 144.5t-41 121t-90 90t-150.5 31.5q-289 0 -289 -387v-557h-51v557q0 82 -12.5 144.5t-42 121t-91 90t-151.5 31.5q-104 0 -191 -70.5t-87 -179.5v-694 h-52z" />
<glyph unicode="n" horiz-adv-x="1030" d="M143 0v979h54v-168q119 184 319 184q391 0 391 -438v-557h-51v557q0 184 -77 285.5t-263 101.5q-135 0 -227 -81t-92 -193v-670h-54z" />
<glyph unicode="o" d="M92 487q0 508 410 508q407 0 407 -508q0 -505 -405 -505h-2q-410 0 -410 505zM147 487.5q0 -75.5 7.5 -136t31 -122t61.5 -103.5t102.5 -67.5t150.5 -25.5q106 0 180 36.5t110.5 105.5t51 142.5t14.5 170t-14.5 170t-50 143t-109.5 106.5t-180 37q-88 0 -152.5 -25.5 t-102.5 -67.5t-61.5 -103.5t-31 -123t-7.5 -137z" />
<glyph unicode="p" horiz-adv-x="999" d="M143 -451v1430h54v-178q53 104 142 151t179 47q389 0 389 -507.5t-391 -507.5q-209 0 -319 184v-619h-54zM197 324q0 -131 94 -210t225 -79q104 0 176 40t105.5 111.5t46 143t12.5 162t-12.5 162t-46 143t-105 111.5t-176.5 40q-131 0 -225 -78.5t-94 -207.5v-338z" />
<glyph unicode="q" horiz-adv-x="1005" d="M90 492q0 152 31 258t122 177.5t240 71.5q213 0 320 -174l35 166l49 -16l-31 -148v-1278h-53v609q-117 -172 -316 -172q-397 0 -397 506zM145 492q0 -92 13.5 -164t47.5 -142.5t105.5 -109.5t175.5 -39q131 0 223.5 80t92.5 209v336q0 131 -93.5 208.5t-226.5 77.5 q-104 0 -174.5 -40t-104.5 -111.5t-46.5 -143t-12.5 -161.5z" />
<glyph unicode="r" horiz-adv-x="765" d="M143 0v979h56v-180q105 192 325 192h2h6q86 0 162 -26l-28 -52q-80 27 -140 27q-127 0 -227 -83t-100 -198v-659h-56z" />
<glyph unicode="s" horiz-adv-x="915" d="M88 225l51 8q55 -200 335 -200h3q115 0 209 57t94 174q0 92 -67.5 143.5t-164.5 73t-194.5 44t-165 77.5t-67.5 152q0 119 94 179t229 60q242 0 340 -170l-47 -22q-82 139 -293 139q-61 0 -116.5 -12.5t-104.5 -57.5t-49 -116q0 -68 49 -111t122 -60.5t159 -40t158.5 -47 t122 -83t49.5 -148.5q0 -131 -105.5 -206.5t-251.5 -75.5q-147 0 -252.5 59t-136.5 184z" />
<glyph unicode="t" horiz-adv-x="555" d="M61 928v51h162v303h56v-303h184v-51h-184v-715q0 -90 34.5 -124t120.5 -38v-51h-16q-195 0 -195 213v715h-162z" />
<glyph unicode="u" horiz-adv-x="1019" d="M123 408v571h53v-571q0 -184 75 -278.5t263 -94.5q111 0 216.5 73.5t105.5 186.5v684h51v-979h-51v154q-129 -170 -322 -170q-209 0 -300 104.5t-91 319.5z" />
<glyph unicode="v" horiz-adv-x="917" d="M53 979h58l348 -930l348 930h59l-370 -979h-76z" />
<glyph unicode="w" horiz-adv-x="1497" d="M49 979h55l283 -922l324 922h71l324 -924l287 924h53l-305 -979h-70l-326 926l-323 -926h-72z" />
<glyph unicode="x" horiz-adv-x="892" d="M63 0l351 506l-332 473h68l296 -428l295 428h64l-328 -473l350 -506h-63l-318 459l-317 -459h-66z" />
<glyph unicode="y" horiz-adv-x="917" d="M53 979h56l350 -913l350 913h55l-473 -1239q-75 -191 -254 -191h-4h-16v52h16q150 0 207 157l90 234z" />
<glyph unicode="z" horiz-adv-x="913" d="M82 0v78l688 850h-635v51h686v-72l-692 -856h692v-51h-739z" />
<glyph unicode="{" horiz-adv-x="684" d="M102 684v59q215 0 215 240q0 39 -20.5 119t-20.5 117q0 178 70 256.5t236 78.5v-53q-147 0 -197.5 -67.5t-50.5 -216.5q0 -35 20.5 -114t20.5 -116q0 -104 -42 -182t-136 -90q92 -12 135 -90t43 -181q0 -39 -18.5 -125t-18.5 -124q0 -135 54 -199t190 -64v-55 q-164 -2 -235 77t-71 241q0 39 20.5 125t20.5 126q0 238 -215 238z" />
<glyph unicode="|" horiz-adv-x="440" d="M195 -156v1741h51v-1741h-51z" />
<glyph unicode="}" horiz-adv-x="684" d="M102 -68q135 0 189.5 63.5t54.5 199.5q0 39 -18.5 125t-18.5 124q0 102 43 180t135 91q-94 12 -136 90t-42 182q0 37 20.5 116t20.5 114q0 150 -50 217t-198 67v53q166 0 236 -78.5t70 -256.5q0 -37 -20.5 -117t-20.5 -119q0 -240 215 -240v-59q-215 0 -215 -238 q0 -41 20.5 -127t20.5 -124q0 -162 -71 -241t-235 -77v55z" />
<glyph unicode="~" horiz-adv-x="952" d="M113 606q86 109 184 109q80 0 183.5 -74t168.5 -74q84 0 152 95l37 -39q-90 -111 -187 -111q-82 0 -185.5 73.5t-168.5 73.5q-82 0 -145 -92z" />
<glyph unicode="&#xa0;" horiz-adv-x="1021" d="M113 979v55h370v396h56v-396h370v-55h-370v-979h-56v979h-370z" />
<glyph unicode="&#xa1;" horiz-adv-x="555" d="M92 1354q0 76 54.5 130t130 54t131 -54t55.5 -130t-55.5 -131.5t-131 -55.5t-130 55.5t-54.5 131.5zM127 1353.5q0 -61.5 44 -106.5t105.5 -45t106.5 45t45 106.5t-45 105.5t-106.5 44t-105.5 -44t-44 -105.5z" />
<glyph unicode="&#xa2;" horiz-adv-x="946" d="M92 489q0 223 115 361.5t344 140.5l35 160l30 -6l-32 -156q150 -18 260 -129l-39 -33q-98 98 -232 119l-194 -885q84 -29 151 -28q158 0 275 121l39 -35q-72 -72 -141.5 -101.5t-172.5 -29.5q-68 0 -161 26l-41 -186l-31 6l43 193q-248 125 -248 462zM152 489 q0 -133 39.5 -234t158.5 -181l191 874q-113 -6 -192 -47t-121 -108.5t-59 -141t-17 -162.5z" />
<glyph unicode="&#xa3;" horiz-adv-x="1028" d="M98 690l11 51h127q-41 199 -41 291q0 178 96 291t272 113q119 0 202 -36t161 -118l-43 -35q-70 74 -141.5 104.5t-178.5 30.5q-158 0 -235.5 -98t-77.5 -252q0 -78 41 -291h266l-10 -51h-244q35 -168 35 -270q0 -152 -84 -367h661v-53h-720v55q88 197 88 365 q0 106 -37 270h-148z" />
<glyph unicode="&#xa4;" horiz-adv-x="1028" d="M133 557q0 186 143 299q-98 92 -98 219q0 150 94.5 247t247.5 97q201 0 348 -250l-49 -24q-129 221 -299 221q-131 0 -209 -83t-78 -208q0 -68 23 -114t72 -74.5t86 -42t106 -29.5q178 -43 276.5 -125.5t98.5 -236.5q0 -182 -141 -299q96 -88 96 -217q0 -152 -94 -249.5 t-248 -97.5q-199 0 -348 252l49 25q129 -223 299 -223q133 0 210 84t77 209q0 66 -22.5 112.5t-72 74.5t-86 41t-106.5 30q-178 45 -276.5 128t-98.5 234zM188 557q0 -137 91.5 -205.5t240.5 -105.5q96 -20 180 -60q140 87 140 267q0 74 -28 129t-79 90t-103 55.5t-122 36.5 q-100 25 -180 61q-139 -88 -140 -268z" />
<glyph unicode="&#xa5;" horiz-adv-x="868" d="M133 692q0 125 88 213t213 88t213 -88t88 -213t-88 -213t-213 -88t-213 88t-88 213z" />
<glyph unicode="&#xa6;" horiz-adv-x="933" d="M113 1049q0 158 115.5 269.5t279.5 111.5h252v-1739h-58v1675h-112v-1675h-58v975q-180 0 -299.5 110.5t-119.5 272.5z" />
<glyph unicode="&#xa7;" horiz-adv-x="1007" d="M45 936v43h94v55q0 395 338 396q109 0 186.5 -76t77.5 -183q0 -111 -116 -219q90 -31 150.5 -80t89 -114.5t39.5 -131t11 -153.5q0 -451 -370 -475v51q317 20 317 430q0 193 -68.5 305.5t-250.5 128.5v48q68 20 106.5 80.5t38.5 129.5q0 84 -62.5 145.5t-148.5 61.5 q-287 0 -287 -346v-1032h-51v936h-94z" />
<glyph unicode="&#xa8;" horiz-adv-x="1617" d="M92 713q0 297 210 507t507 210t507 -210t210 -507t-210 -507t-507 -210t-507 210t-210 507zM133 712.5q0 -278.5 197.5 -477t478.5 -198.5t478.5 198.5t197.5 477t-197.5 477.5t-478.5 199t-478.5 -199t-197.5 -477.5zM578 340v747h258q113 0 177 -51t64 -155 q0 -80 -56 -136.5t-163 -56.5q51 -55 55 -61q8 -6 13 -17l166 -270h-64l-145 244q-23 41 -45 63q-37 33 -82 33h-127v-340h-51zM629 719h207q190 0 190 162q0 156 -190 155h-207v-317z" />
<glyph unicode="&#xa9;" horiz-adv-x="1617" d="M92 713q0 297 210 507t507 210t507 -210t210 -507t-210 -507t-507 -210t-507 210t-210 507zM133 712.5q0 -278.5 197.5 -477t478.5 -198.5t478.5 198.5t197.5 477t-197.5 477.5t-478.5 199t-478.5 -199t-197.5 -477.5zM526 713q0 170 73 279.5t226 109.5q121 0 211 -101 l-39 -32q-72 82 -172 82q-96 0 -153.5 -57.5t-73.5 -126t-16 -154.5q0 -336 243 -336q98 0 172 80l39 -33q-88 -98 -211 -98q-154 0 -226.5 108.5t-72.5 278.5z" />
<glyph unicode="&#xaa;" horiz-adv-x="989" d="M86 1389v41h326v-41h-144v-390h-39v390h-143zM475 999v431h43l154 -392l153 392h45v-431h-41v349l-133 -349h-49l-133 349v-349h-39z" />
<glyph unicode="&#xab;" horiz-adv-x="577" d="M156 1116l172 299h92l-193 -299h-71z" />
<glyph unicode="&#xac;" d="M215 1220.5q0 28.5 19.5 48t46 19.5t47 -19t20.5 -48q0 -27 -19.5 -46.5t-47.5 -19.5q-27 0 -46.5 18.5t-19.5 47zM655 1221q0 29 20.5 48t47.5 19t46 -19.5t19 -48t-19 -47t-46 -18.5q-29 0 -48.5 19.5t-19.5 46.5z" />
<glyph unicode="&#xad;" horiz-adv-x="1046" d="M113 291v55h333l121 334h-454v53h475l78 217l30 -10l-75 -207h313v-53h-332l-123 -334h455v-55h-475l-78 -215l-31 10l76 205h-313z" />
<glyph unicode="&#xae;" horiz-adv-x="1849" d="M45 0l821 1430h891v-56h-756v-600h656v-57h-656v-662h756v-55h-815l2 453h-577l-261 -453h-61zM399 504h545v870h-43z" />
<glyph unicode="&#xaf;" horiz-adv-x="1302" d="M92 715q0 147 29 273t91 232.5t174 167t265 60.5q174 0 322 -96l43 78h59l-63 -111q198 -207 198 -604q0 -147 -28.5 -273.5t-91 -233t-174 -166.5t-265.5 -60q-182 0 -332 104l-47 -86h-59l68 121q-188 207 -189 594zM150 715q0 -340 159 -543l635 1131q-129 88 -293 88 q-119 0 -209 -41t-144 -106.5t-89 -157t-47 -181.5t-12 -190zM348 137q131 -98 303 -98q119 0 209 41t144.5 106.5t89 156.5t47 181.5t12.5 190.5q0 352 -170 553z" />
<glyph unicode="&#xb0;" horiz-adv-x="1558" d="M92 547q0 113 75 185.5t185 72.5q166 0 428 -238q258 238 426 238q117 0 188.5 -81t71.5 -208q0 -115 -74.5 -187.5t-185.5 -72.5q-164 0 -426 238q-266 -238 -428 -238q-115 0 -187.5 83t-72.5 208zM145 547q0 -100 56.5 -167t150.5 -67q61 0 137 38t127 77t123 102 q-244 217 -387 218q-86 0 -146.5 -54.5t-60.5 -146.5zM821 530q246 -217 385 -217q86 0 146.5 55.5t60.5 147.5q0 100 -56.5 166t-150.5 66q-145 0 -385 -218z" />
<glyph unicode="&#xb1;" horiz-adv-x="1046" d="M113 0v53h821v-53h-821zM113 537v57h381v377h59v-377h381v-57h-381v-379h-59v379h-381z" />
<glyph unicode="&#xb2;" horiz-adv-x="962" d="M113 0v57h737v-57h-737zM113 489v84l737 338v-59l-698 -320l698 -319v-61z" />
<glyph unicode="&#xb3;" horiz-adv-x="962" d="M113 0v57h737v-57h-737zM113 152v61l698 319l-698 320v59l737 -338v-84z" />
<glyph unicode="&#xb4;" horiz-adv-x="1177" d="M88 1430h64l438 -889l438 889h64l-340 -689h209l-13 -51h-221l-117 -235h351l-13 -52h-330v-403h-57v403h-344l12 52h340l-116 235h-236l12 51h199z" />
<glyph unicode="&#xb5;" horiz-adv-x="1030" d="M133 -401v1380h53v-557q0 -182 76 -282.5t262 -100.5q113 0 217.5 71.5t104.5 182.5v686h51v-979h-51v152q-139 -164 -322 -164q-244 0 -338 194v-583h-53z" />
<glyph unicode="&#xb6;" horiz-adv-x="997" d="M92 412q0 174 103.5 294.5t283.5 120.5q199 0 348 -213q-12 111 -31.5 216.5t-61.5 242.5t-115.5 222t-169.5 85q-127 0 -240 -129l-45 35q131 150 282 150q104 0 186.5 -83t127.5 -203t74.5 -269.5t40 -264t10.5 -206.5q0 -168 -114 -292t-282 -124q-174 0 -285.5 117.5 t-111.5 300.5zM147 412q0 -156 95.5 -260.5t246.5 -104.5q147 0 243.5 111t96.5 254q0 141 -100 251.5t-250 110.5q-156 0 -244 -108.5t-88 -253.5z" />
<glyph unicode="&#xb7;" horiz-adv-x="1036" d="M113 -381l571 870l-571 873v68h811v-54h-756l582 -887l-582 -886h756v-54h-811v70z" />
<glyph unicode="&#xb8;" horiz-adv-x="1206" d="M154 -403v1943h899v-1943h-52v1894h-794v-1894h-53z" />
<glyph unicode="&#xb9;" horiz-adv-x="1085" d="M133 0v979h717v-764q0 -92 31.5 -125t111.5 -37v-53h-14q-182 0 -182 215v713h-611v-928h-53z" />
<glyph unicode="&#xba;" horiz-adv-x="638" d="M72 -350h65q49 0 80 10q74 29 74 150v1411q0 209 192 209h84v-50h-67q-51 0 -78 -12q-76 -25 -76 -147v-1411q0 -211 -190 -211h-84v51z" />
<glyph unicode="&#xbb;" horiz-adv-x="806" d="M90 860q0 106 78 168t192 62h123q104 0 154 47v84q0 76 -66.5 123t-144.5 47q-178 0 -236 -134l-55 17q78 174 295 174q102 0 183 -63.5t81 -157.5v-512l23 -56l-51 -16l-33 76q-74 -53 -129 -73.5t-129 -20.5q-125 0 -205 61.5t-80 173.5zM150 860q0 -90 65.5 -135 t159.5 -45q143 0 262 117v270q-74 -33 -133 -33h-144q-88 0 -149 -44t-61 -130zM283 412v53h241v-53h-241z" />
<glyph unicode="&#xbc;" horiz-adv-x="862" d="M94 1036.5q0 411.5 338 411.5q336 0 336 -411.5t-336 -411.5q-338 0 -338 411.5zM152 1036.5q0 -73.5 11 -131t38.5 -111t86 -83t144.5 -29.5t143.5 29.5t85 83t39 111t11.5 131t-11.5 131t-39 110.5t-85 83t-143.5 30t-144.5 -30t-86 -83t-38.5 -110.5t-11 -131z M311 412v53h240v-53h-240z" />
<glyph unicode="&#xbd;" horiz-adv-x="1220" d="M92 713q0 139 26.5 260t83 226.5t162 166.5t247 61t247 -61t161.5 -166.5t82.5 -226.5t26.5 -260q0 -430 -282 -668h241l11 -45h-318v53q168 123 231.5 278.5t63.5 381.5q0 92 -11 178t-43 176t-82 156.5t-135 108.5t-193.5 42t-193.5 -42t-135.5 -108.5t-82 -156.5 t-43 -176t-11.5 -178q0 -225 63.5 -381t231.5 -279v-53h-315l8 45h242q-283 238 -283 668z" />
<glyph unicode="&#xbe;" horiz-adv-x="1593" d="M80 266q0 127 91 202t226 75h148q131 0 192 65v109q0 100 -83 161.5t-179 61.5q-94 0 -174 -41t-115 -125l-49 17q86 201 344 200q94 0 176 -53t131 -160q125 213 359 213q182 0 272 -122.5t90 -319.5l-2 -62h-716q4 -455 376 -454q174 0 267 104l39 -33 q-106 -123 -306 -122q-242 0 -364 188q-96 -102 -186.5 -146t-202.5 -44q-145 0 -239.5 73.5t-94.5 212.5zM133 266q0 -117 84 -176t197 -59q182 0 366 188q-43 125 -43 326q-88 -51 -166 -51h-174q-106 0 -185 -58.5t-79 -169.5zM788 539h670q-8 401 -311 401 q-170 0 -259 -105.5t-100 -295.5z" />
<glyph unicode="&#xbf;" d="M92 485q0 506 410 506q131 0 241 -63l31 53h47l-47 -78q135 -137 135 -418q0 -504 -407 -503q-137 0 -248 65l-29 -47h-45l43 74q-131 139 -131 411zM145 485q0 -227 105 -366l465 764q-102 57 -213 57q-109 0 -182.5 -37t-109.5 -105.5t-50.5 -142t-14.5 -170.5zM283 92 q98 -59 217 -59q106 0 180 36.5t110.5 104.5t51 141.5t14.5 169.5q0 236 -108 373z" />
<glyph unicode="&#xc0;" horiz-adv-x="958" d="M63 344q0 86 33 143.5t76 80t104.5 60.5t98.5 81q68 70 76 198l6 152h24q12 -111 13 -150q0 -102 -30 -166.5t-69 -89t-103.5 -63.5t-105.5 -80q-66 -66 -65 -166q0 -143 100.5 -225t245.5 -82q133 0 239.5 73.5t116.5 200.5h54q-10 -147 -129 -237t-281 -90 q-170 0 -287 99t-117 261zM397 1376.5q0 28.5 19.5 49t48.5 20.5t49.5 -20.5t20.5 -49t-20.5 -48t-49.5 -19.5q-27 0 -47.5 19.5t-20.5 48z" />
<glyph unicode="&#xc1;" horiz-adv-x="573" d="M219 1380.5q0 28.5 19.5 48t48 19.5t48 -19.5t19.5 -48t-19.5 -49t-48 -20.5t-48 20.5t-19.5 49zM242 0v692l28 373h31l29 -373v-692h-88z" />
<glyph unicode="&#xc2;" horiz-adv-x="1026" d="M92 530v45h821v-364h-41v319h-780z" />
<glyph unicode="&#xc3;" horiz-adv-x="1234" d="M125 965h57l365 -906l375 1360h241v-53h-200l-377 -1366h-74z" />
<glyph unicode="&#xc4;" horiz-adv-x="739" d="M35 -397l225 1212h-145v51h153l33 174q70 374 387 390v-52q-274 -16 -334 -346l-30 -166h180v-51h-191l-225 -1221z" />
<glyph unicode="&#xc5;" horiz-adv-x="1019" d="M104 395q86 80 187 80q78 0 223 -51t223 -51q80 0 144 59l34 -35q-84 -78 -186 -78q-78 0 -223.5 50.5t-225 50.5t-143.5 -58zM104 717q84 78 187 78q78 0 223 -50.5t223 -50.5q80 0 144 60l34 -35q-84 -78 -186 -78q-78 0 -223.5 50t-225 50t-143.5 -57z" />
<glyph unicode="&#xc6;" horiz-adv-x="1165" d="M43 0l541 1378l540 -1378h-1081zM117 47h934l-467 1190z" />
<glyph unicode="&#xc7;" horiz-adv-x="964" d="M92 487v82l385 371l-2 -74l-350 -338l350 -338v-73zM467 487v82l385 371v-74l-350 -338l350 -338v-73z" />
<glyph unicode="&#xc8;" horiz-adv-x="964" d="M92 940l385 -371v-82l-383 -370v73l350 338l-350 338q0 41 -2 74zM467 940l385 -371v-82l-383 -370v73l350 338l-350 338q0 41 -2 74z" />
<glyph unicode="&#xc9;" horiz-adv-x="987" d="M154 51q0 27 19.5 47.5t48 20.5t48 -19.5t19.5 -48t-19.5 -48t-48 -19.5t-48 19.5t-19.5 47.5zM426 51q0 27 20.5 47.5t47 20.5t47 -20.5t20.5 -47.5q0 -29 -19.5 -48t-48 -19t-48 19.5t-19.5 47.5zM698 51q0 27 19.5 47.5t48.5 20.5t48.5 -20.5t19.5 -47.5 q0 -29 -19.5 -48t-48.5 -19t-48.5 19.5t-19.5 47.5z" />
<glyph unicode="&#xca;" horiz-adv-x="276" />
<glyph unicode="&#xcb;" horiz-adv-x="1263" d="M33 0l549 1430h100l549 -1430h-60l-174 453h-731l-174 -453h-59zM287 504h690l-346 899zM461 1886h80l151 -256h-63z" />
<glyph unicode="&#xcc;" horiz-adv-x="1263" d="M33 0l549 1430h100l549 -1430h-60l-174 453h-731l-174 -453h-59zM287 504h690l-346 899zM342 1688q61 74 139 73q59 0 157.5 -45t152.5 -45q57 0 96 49l4 6l41 -32q-68 -74 -139 -74q-59 0 -160 45t-152 45q-53 0 -96 -49l-4 -4z" />
<glyph unicode="&#xcd;" horiz-adv-x="1302" d="M92 715q0 150 29 274.5t91 231t174 167t265.5 60.5t265 -60.5t174 -167t91 -231t28.5 -274.5q0 -147 -28.5 -273.5t-91 -233t-174 -166.5t-265 -60t-265.5 60t-174 166.5t-91 232.5t-29 274zM150 714.5q0 -100.5 12 -190.5t47 -181t89 -156.5t144 -106.5t209 -41t209 41 t144.5 106.5t89 156.5t47 181t12.5 190.5t-12.5 190.5t-47 181.5t-89 157t-144.5 106.5t-209 41t-209 -41t-144 -106.5t-89 -157t-47 -181.5t-12 -190.5zM369 1688q63 74 141 73q57 0 157.5 -45t151.5 -45q55 0 99 49l4 6l39 -32q-63 -74 -140 -74q-57 0 -157.5 45 t-153.5 45q-57 0 -96 -49l-4 -4z" />
<glyph unicode="&#xce;" horiz-adv-x="2060" d="M92 714.5q0 116.5 16.5 220t57.5 199t102.5 164t156.5 109.5t216 41q305 0 494 -336v318h813v-58h-756v-598h653v-57h-653v-660h756v-57h-838l16 -6q4 -8 6.5 72.5t2.5 166.5v84q-188 -336 -494 -335q-121 0 -216 40.5t-156.5 109.5t-102.5 164t-57.5 198.5t-16.5 220z M147 714.5q0 -100.5 12.5 -190.5t46.5 -181t87 -156.5t142 -106.5t206 -41t206 41t142 106.5t87 156.5t46.5 181t12.5 190.5t-12.5 190.5t-46.5 181.5t-87 157t-142 106.5t-206 41t-206 -41t-142 -106.5t-87 -157t-46.5 -181.5t-12.5 -190.5z" />
<glyph unicode="&#xcf;" horiz-adv-x="1691" d="M92 485q0 506 397 506q260 0 373 -262q121 262 377 262q182 0 272 -122.5t88 -319.5v-62h-712q4 -219 89 -336.5t284 -117.5q178 0 276 106l41 -33q-113 -125 -317 -124q-279 0 -398 260q-113 -260 -373 -260q-397 0 -397 503zM143 485.5q0 -96.5 14.5 -170t49.5 -141.5 t106.5 -104.5t176 -36.5t175 36.5t106.5 104.5t50.5 142.5t14.5 168.5q0 96 -14.5 170t-49.5 142.5t-106.5 105.5t-176 37t-176 -37t-106.5 -105.5t-49.5 -142t-14.5 -170zM889 539h659q-8 401 -309 401q-326 0 -350 -401z" />
<glyph unicode="&#xd0;" horiz-adv-x="1032" d="M113 532v58h807v-58h-807z" />
<glyph unicode="&#xd1;" horiz-adv-x="1642" d="M113 532v58h1417v-58h-1417z" />
<glyph unicode="&#xd2;" horiz-adv-x="727" d="M143 1174q0 25 7 49q2 18 10 51l125 207l-13 -297q0 -27 -19.5 -46.5t-43.5 -19.5q-27 0 -46.5 16.5t-19.5 39.5zM438 1174q0 16 4 49q8 39 11 51l127 207l-13 -297q-2 -27 -20.5 -46.5t-45 -19.5t-45 16.5t-18.5 39.5z" />
<glyph unicode="&#xd3;" horiz-adv-x="727" d="M147 1180l13 295q2 27 20.5 46t42.5 19q27 0 46.5 -16t19.5 -39q0 -25 -6 -49q-2 -25 -11 -50zM440 1180l13 295q2 29 20.5 47t45 18t46 -16t19.5 -39l-6 -49q-8 -31 -11 -50z" />
<glyph unicode="&#xd4;" horiz-adv-x="464" d="M176 1174q0 25 6 49q2 10 5 26.5t3 24.5l127 207l-12 -297q-2 -27 -20.5 -46.5t-45 -19.5t-45 16.5t-18.5 39.5z" />
<glyph unicode="&#xd5;" horiz-adv-x="464" d="M147 1180l13 295q2 29 20.5 47t45 18t46 -16t19.5 -39l-6 -49q-8 -31 -11 -50z" />
<glyph unicode="&#xd6;" horiz-adv-x="1032" d="M113 532v58h807v-58h-807zM444 223q0 27 19.5 47.5t48.5 20.5t48.5 -20.5t19.5 -47.5q0 -29 -19.5 -49t-48.5 -20t-48.5 20.5t-19.5 48.5zM444 899q0 29 20.5 49.5t47.5 20.5t47.5 -20.5t20.5 -49.5q0 -27 -19.5 -47.5t-48.5 -20.5t-48.5 20.5t-19.5 47.5z" />
<glyph unicode="&#xd7;" horiz-adv-x="1081" d="M117 707l424 673l422 -673l-422 -676zM166 707l375 -596l372 596l-372 593z" />
<glyph unicode="&#xd8;" horiz-adv-x="927" d="M53 979h56l350 -913l350 913h55l-473 -1239q-76 -193 -258 -191h-16v52h16q150 0 207 157l90 234zM182 1223q0 27 19.5 46t46.5 19q29 0 48 -19.5t19 -46t-20.5 -47t-47 -20.5t-46 19.5t-19.5 48.5zM623 1222.5q0 26.5 19.5 46t47.5 19.5q27 0 46.5 -19.5t19.5 -46 t-19.5 -47t-46 -20.5t-47 20.5t-20.5 47z" />
<glyph unicode="&#xd9;" horiz-adv-x="1136" d="M68 1430h63l438 -889l439 889h63l-473 -957v-473h-57v473zM283 1697.5q0 26.5 20.5 47t47 20.5t46 -19t19.5 -48q0 -27 -19.5 -46.5t-46.5 -19.5q-29 0 -48 19.5t-19 46zM725 1698q0 29 19.5 48t46.5 19q29 0 48 -20.5t19 -47t-19.5 -46t-48 -19.5t-47 19.5t-18.5 46.5z " />
<glyph unicode="&#xda;" horiz-adv-x="280" d="M-201 0l641 1430h41l-643 -1430h-39z" />
<glyph unicode="&#xdb;" horiz-adv-x="1198" d="M98 506l11 51h131q-8 125 -7 236h-135l11 51h129q23 266 161 435t396 169q197 0 327 -117l-28 -49q-123 109 -299 109q-227 0 -353.5 -152t-146.5 -395h545l-11 -51h-538v-78q0 -90 6 -158h543l-11 -51h-528q39 -215 167 -341t327 -126q176 0 299 108l28 -49 q-131 -117 -327 -116q-223 0 -367.5 142t-181.5 382h-148z" />
<glyph unicode="&#xdc;" horiz-adv-x="612" d="M92 487v82l410 371l-2 -74l-373 -338l373 -338v-73z" />
<glyph unicode="&#xdd;" horiz-adv-x="612" d="M92 940l410 -371v-82l-408 -370v73l371 338l-371 338q0 41 -2 74z" />
<glyph unicode="&#xde;" horiz-adv-x="944" d="M92 928v51h107v55q0 172 59 262q80 123 256 134v-52q-145 -10 -213 -110q-49 -74 -49 -236v-53h532v-979h-53v928h-479v-928h-53v928h-107zM692 1364q0 29 18.5 47.5t47 18.5t48 -19.5t19.5 -46.5q0 -29 -19.5 -48.5t-47.5 -19.5q-27 0 -46.5 19.5t-19.5 48.5z" />
<glyph unicode="&#xdf;" d="M92 928v51h103q0 119 8 172q20 135 106 207t226 72h249v-1219q0 -143 103 -158l2 -51q-158 14 -158 209v1167h-196q-252 0 -283 -250q-4 -47 -4 -149h229v-51h-229v-928h-53v928h-103z" />
<glyph unicode="&#xe0;" horiz-adv-x="1021" d="M113 53v53h370v807h-370v54h370v463h56v-463h370v-54h-370v-807h370v-53h-370v-463h-56v463h-370z" />
<glyph unicode="&#xe1;" horiz-adv-x="444" d="M133 543q0 37 25.5 62.5t62.5 25.5t63.5 -25.5t26.5 -62.5t-26.5 -63.5t-63.5 -26.5t-62.5 26.5t-25.5 63.5z" />
<glyph unicode="&#xe2;" horiz-adv-x="464" d="M166 -182l12 297q2 29 19.5 47t44.5 18q29 0 49 -19.5t16 -39.5l-16 -96z" />
<glyph unicode="&#xe3;" horiz-adv-x="727" d="M147 -182l13 297q2 29 19.5 47t43.5 18q29 0 49.5 -19.5t16.5 -39.5l-17 -96zM440 -182l13 297q2 29 20.5 47t44.5 18q29 0 48.5 -19.5t15.5 -39.5l-15 -96z" />
<glyph unicode="&#xe4;" horiz-adv-x="2052" d="M92 1059q0 168 65.5 279.5t213.5 111.5q145 0 210.5 -111.5t65.5 -279.5q0 -170 -65.5 -280.5t-210.5 -110.5q-147 0 -213 110.5t-66 280.5zM133 1059q0 -350 238 -350q235 0 235 350t-235 350q-238 0 -238 -350zM434 0l615 1430h55l-615 -1430h-55zM891 371 q0 168 65.5 279.5t212.5 111.5q199 0 256 -217q57 217 258 217q145 0 211 -111.5t66 -279.5t-65.5 -279.5t-211.5 -111.5q-201 0 -258 217q-57 -217 -256 -217q-147 0 -212.5 111.5t-65.5 279.5zM931.5 370.5q0.5 -350.5 237.5 -350.5q236 0 236 350.5t-236 350.5 q-238 0 -237.5 -350.5zM1405 371zM1445.5 370.5q0.5 -350.5 237.5 -350.5q236 0 236 350.5t-236 350.5q-238 0 -237.5 -350.5zM1446 371z" />
<glyph unicode="&#xe5;" horiz-adv-x="1263" d="M33 0l549 1430h100l549 -1430h-60l-174 453h-731l-174 -453h-59zM287 504h690l-346 899zM391 1589l203 297h78l202 -297h-65l-178 273l-176 -273h-64z" />
<glyph unicode="&#xe6;" horiz-adv-x="1169" d="M154 0v1430h888v-56h-831v-606h727v-51h-727v-662h831v-55h-888zM391 1589l203 297h78l202 -297h-65l-178 273l-176 -273h-64z" />
<glyph unicode="&#xe7;" horiz-adv-x="1263" d="M33 0l549 1430h100l549 -1430h-60l-174 453h-731l-174 -453h-59zM287 504h690l-346 899zM565 1630l150 256h82l-170 -256h-62z" />
<glyph unicode="&#xe8;" horiz-adv-x="1169" d="M154 0v1430h888v-56h-831v-606h727v-51h-727v-662h831v-55h-888zM342 1697.5q0 26.5 19.5 47t48.5 20.5q27 0 46 -19t19 -48q0 -27 -18.5 -46.5t-47 -19.5t-48 19.5t-19.5 46zM782 1697.5q0 26.5 20.5 47t47.5 20.5t47.5 -20.5t20.5 -47t-19.5 -46t-48.5 -19.5 t-48.5 19.5t-19.5 46z" />
<glyph unicode="&#xe9;" horiz-adv-x="1169" d="M154 0v1430h888v-56h-831v-606h727v-51h-727v-662h831v-55h-888zM463 1886h84l153 -256h-65z" />
<glyph unicode="&#xea;" horiz-adv-x="448" d="M156 1630l172 256h92l-193 -256h-71zM197 0v1430h57v-1430h-57z" />
<glyph unicode="&#xeb;" horiz-adv-x="466" d="M-8 1589l203 297h77l203 -297h-65l-179 273l-176 -273h-63zM203 0v1430h57v-1430h-57z" />
<glyph unicode="&#xec;" horiz-adv-x="454" d="M-29 1697.5q0 26.5 20.5 47t47.5 20.5t46 -19t19 -48q0 -27 -19 -46.5t-46 -19.5q-29 0 -48.5 19.5t-19.5 46zM205 0v1430h57v-1430h-57zM350 1698q0 29 19.5 48t46 19t47 -20.5t20.5 -47t-19.5 -46t-47.5 -19.5q-27 0 -46.5 19.5t-19.5 46.5z" />
<glyph unicode="&#xed;" horiz-adv-x="475" d="M55 1886h92l172 -256h-71zM213 0v1430h57v-1430h-57z" />
<glyph unicode="&#xee;" horiz-adv-x="1302" d="M92 715q0 150 29 274.5t91 231t174 167t265.5 60.5t265 -60.5t174 -167t91 -231t28.5 -274.5q0 -147 -28.5 -273.5t-91 -233t-174 -166.5t-265 -60t-265.5 60t-174 166.5t-91 232.5t-29 274zM150 714.5q0 -100.5 12 -190.5t47 -181t89 -156.5t144 -106.5t209 -41t209 41 t144.5 106.5t89 156.5t47 181t12.5 190.5t-12.5 190.5t-47 181.5t-89 157t-144.5 106.5t-209 41t-209 -41t-144 -106.5t-89 -157t-47 -181.5t-12 -190.5zM569 1630l152 256h82l-170 -256h-64z" />
<glyph unicode="&#xef;" horiz-adv-x="1302" d="M92 715q0 150 29 274.5t91 231t174 167t265.5 60.5t265 -60.5t174 -167t91 -231t28.5 -274.5q0 -147 -28.5 -273.5t-91 -233t-174 -166.5t-265 -60t-265.5 60t-174 166.5t-91 232.5t-29 274zM150 714.5q0 -100.5 12 -190.5t47 -181t89 -156.5t144 -106.5t209 -41t209 41 t144.5 106.5t89 156.5t47 181t12.5 190.5t-12.5 190.5t-47 181.5t-89 157t-144.5 106.5t-209 41t-209 -41t-144 -106.5t-89 -157t-47 -181.5t-12 -190.5zM410 1591l204 297h76l205 -297h-68l-176 273l-176 -273h-65z" />
<glyph unicode="&#xf1;" horiz-adv-x="1302" d="M92 715q0 150 29 274.5t91 231t174 167t265.5 60.5t265 -60.5t174 -167t91 -231t28.5 -274.5q0 -147 -28.5 -273.5t-91 -233t-174 -166.5t-265 -60t-265.5 60t-174 166.5t-91 232.5t-29 274zM150 714.5q0 -100.5 12 -190.5t47 -181t89 -156.5t144 -106.5t209 -41t209 41 t144.5 106.5t89 156.5t47 181t12.5 190.5t-12.5 190.5t-47 181.5t-89 157t-144.5 106.5t-209 41t-209 -41t-144 -106.5t-89 -157t-47 -181.5t-12 -190.5zM487 1886h80l154 -256h-64z" />
<glyph unicode="&#xf2;" horiz-adv-x="1298" d="M143 612v818h58v-818q0 -121 18.5 -214t64.5 -179t138 -133t227 -47t227.5 47t138.5 133t64.5 179.5t18.5 213.5v818h57v-818q0 -299 -114.5 -464.5t-391.5 -165.5q-506 0 -506 630zM551 1630l151 256h82l-170 -256h-63z" />
<glyph unicode="&#xf3;" horiz-adv-x="1298" d="M143 612v818h58v-818q0 -121 18.5 -214t64.5 -179t138 -133t227 -47t227.5 47t138.5 133t64.5 179.5t18.5 213.5v818h57v-818q0 -299 -114.5 -464.5t-391.5 -165.5q-506 0 -506 630zM410 1591l204 297h76l205 -297h-68l-176 273l-176 -273h-65z" />
<glyph unicode="&#xf4;" horiz-adv-x="1298" d="M143 612v818h58v-818q0 -121 18.5 -214t64.5 -179t138 -133t227 -47t227.5 47t138.5 133t64.5 179.5t18.5 213.5v818h57v-818q0 -299 -114.5 -464.5t-391.5 -165.5q-506 0 -506 630zM492 1886h79l154 -256h-63z" />
<glyph unicode="&#xf5;" horiz-adv-x="413" d="M178 0v979h55v-979h-55z" />
<glyph unicode="&#xf6;" horiz-adv-x="1019" d="M264 1092l203 299h76l205 -299h-66l-178 272l-176 -272h-64z" />
<glyph unicode="&#xf7;" horiz-adv-x="1013" d="M195 1206q66 98 145 99q61 0 164.5 -59.5t157.5 -59.5q59 0 106 71l41 -43q-63 -96 -145 -96q-61 0 -165 59.5t-157 59.5q-57 0 -106 -72z" />
<glyph unicode="&#xf8;" horiz-adv-x="991" d="M195 1260v51h602v-51h-602z" />
<glyph unicode="&#xf9;" horiz-adv-x="997" d="M168 1430h53q43 -86 117 -138.5t160 -52.5q88 0 160.5 52t117.5 139h53q-47 -113 -136 -182.5t-195 -69.5q-104 0 -193.5 69.5t-136.5 182.5z" />
<glyph unicode="&#xfa;" horiz-adv-x="1017" d="M420 1198q0 37 25.5 63.5t62.5 26.5t63.5 -26.5t26.5 -63.5q0 -35 -26.5 -61.5t-63.5 -26.5t-62.5 26.5t-25.5 61.5z" />
<glyph unicode="&#xfb;" horiz-adv-x="989" d="M256 1329q0 98 69.5 168t170.5 70q98 0 167.5 -70t69.5 -168t-69.5 -168.5t-167.5 -70.5q-100 0 -170 70.5t-70 168.5zM311 1329q0 -76 53.5 -130t131.5 -54q76 0 129 54t53 130t-53.5 129t-129 53t-130 -53t-54.5 -129z" />
<glyph unicode="&#xfc;" horiz-adv-x="985" d="M373 -401l184 266l-74 155l45 19l84 -180l-147 -260h-92z" />
<glyph unicode="&#xfd;" horiz-adv-x="890" d="M256 1167l158 299h86l-178 -299h-66zM530 1167l160 299h86l-178 -299h-68z" />
<glyph unicode="&#xfe;" horiz-adv-x="1042" d="M387 0h62l233 -401h-90z" />
<glyph unicode="&#xff;" horiz-adv-x="956" d="M264 1391h64l176 -275l178 275h66l-205 -299h-76z" />
<glyph unicode="&#x152;" horiz-adv-x="954" d="M92 266q0 129 93.5 203t232.5 74h153q139 0 201 65v117q0 100 -86 161.5t-186 61.5q-98 0 -181 -40t-118 -126l-49 17q88 201 354 200q125 0 222 -76.5t97 -191.5v-584l29 -145l-45 -12l-31 129q-88 -76 -165.5 -107.5t-176.5 -31.5q-152 0 -248 74.5t-96 211.5zM147 266 q0 -117 85 -176t204 -59q186 -1 336 149v363q-61 -33 -93 -41t-81 -8h-180q-111 0 -191 -57.5t-80 -170.5zM266 1348q0 90 67.5 154.5t162 64.5t162 -64.5t67.5 -154.5q0 -92 -66.5 -157t-162.5 -65q-94 0 -162 64.5t-68 157.5zM319 1347.5q0 -69.5 52.5 -119.5t124 -50 t124 50t52.5 119.5t-52.5 119t-124 49.5t-124 -49.5t-52.5 -119z" />
<glyph unicode="&#x153;" horiz-adv-x="1019" d="M123 428v551h53v-551q0 -188 75 -290.5t263 -102.5q111 0 216.5 73.5t105.5 186.5v684h51v-979h-51v154q-129 -170 -322 -170q-207 0 -299 112.5t-92 331.5zM475 1157l156 258h82l-172 -258h-66z" />
<glyph unicode="&#x178;" horiz-adv-x="1019" d="M123 428v551h53v-551q0 -188 75 -290.5t263 -102.5q111 0 216.5 73.5t105.5 186.5v684h51v-979h-51v154q-129 -170 -322 -170q-207 0 -299 112.5t-92 331.5zM223 1223q0 27 19.5 46t46.5 19q29 0 48 -19.5t19 -46t-20.5 -47t-47 -20.5t-46 19.5t-19.5 48.5zM664 1222.5 q0 26.5 19 46t48 19.5q27 0 46.5 -19.5t19.5 -46t-19.5 -47t-46 -20.5t-47 20.5t-20.5 47z" />
<glyph unicode="&#x2c6;" horiz-adv-x="954" d="M92 266q0 129 93.5 203t232.5 74h153q139 0 201 65v117q0 100 -86 161.5t-186 61.5q-98 0 -181 -40t-118 -126l-49 17q88 201 354 200q125 0 222 -76.5t97 -191.5v-584l29 -145l-45 -12l-31 129q-88 -76 -165.5 -107.5t-176.5 -31.5q-152 0 -248 74.5t-96 211.5zM147 266 q0 -117 85 -176t204 -59q186 -1 336 149v363q-61 -33 -93 -41t-81 -8h-180q-111 0 -191 -57.5t-80 -170.5zM332 1415h82l155 -258h-65z" />
<glyph unicode="&#x2dc;" d="M92 487q0 508 410 508q407 0 407 -508q0 -506 -407 -505q-410 0 -410 505zM147 487.5q0 -75.5 7.5 -136t31 -122t61.5 -103.5t102.5 -67.5t150.5 -25.5q106 0 180 36.5t110.5 105.5t51 142.5t14.5 170t-14.5 170t-50 143t-109.5 106.5t-180 37q-88 0 -152.5 -25.5 t-102.5 -67.5t-61.5 -103.5t-31 -123t-7.5 -137zM344 1415h82l154 -258h-64z" />
<glyph unicode="&#x2000;" horiz-adv-x="944" />
<glyph unicode="&#x2001;" horiz-adv-x="1888" />
<glyph unicode="&#x2002;" horiz-adv-x="944" />
<glyph unicode="&#x2003;" horiz-adv-x="1888" />
<glyph unicode="&#x2004;" horiz-adv-x="629" />
<glyph unicode="&#x2005;" horiz-adv-x="472" />
<glyph unicode="&#x2006;" horiz-adv-x="314" />
<glyph unicode="&#x2007;" horiz-adv-x="314" />
<glyph unicode="&#x2008;" horiz-adv-x="236" />
<glyph unicode="&#x2009;" horiz-adv-x="377" />
<glyph unicode="&#x200a;" horiz-adv-x="104" />
<glyph unicode="&#x2010;" horiz-adv-x="792" d="M133 532v58h526v-58h-526z" />
<glyph unicode="&#x2011;" horiz-adv-x="792" d="M133 532v58h526v-58h-526z" />
<glyph unicode="&#x2012;" horiz-adv-x="792" d="M133 532v58h526v-58h-526z" />
<glyph unicode="&#x2013;" horiz-adv-x="1009" d="M143 0v979h54v-168q119 184 319 184q391 0 391 -438v-557h-51v557q0 184 -77 285.5t-263 101.5q-135 0 -227 -81t-92 -193v-670h-54zM219 1231q61 74 141 74q59 0 162 -46.5t156 -46.5q59 0 100 52l4 4l41 -33q-68 -74 -143 -74q-59 0 -161.5 46t-156.5 46 q-59 0 -100 -51l-4 -4z" />
<glyph unicode="&#x2014;" d="M92 487q0 508 410 508q407 0 407 -508q0 -506 -407 -505q-410 0 -410 505zM147 487.5q0 -75.5 7.5 -136t31 -122t61.5 -103.5t102.5 -67.5t150.5 -25.5q106 0 180 36.5t110.5 105.5t51 142.5t14.5 170t-14.5 170t-50 143t-109.5 106.5t-180 37q-88 0 -152.5 -25.5 t-102.5 -67.5t-61.5 -103.5t-31 -123t-7.5 -137zM449 1157l155 258h82l-172 -258h-65z" />
<glyph unicode="&#x2018;" horiz-adv-x="976" d="M92 489q0 231 99.5 368.5t320.5 137.5q188 0 280.5 -122.5t92.5 -319.5v-61h-735q2 -219 90 -339t292 -120q180 0 275 104l41 -33q-111 -123 -316 -122q-440 0 -440 507zM150 543h681q-8 401 -319 401q-336 0 -362 -401zM182 1223q0 27 19.5 46t46.5 19q29 0 48 -19.5 t19 -46t-20.5 -47t-47 -20.5t-46 19.5t-19.5 48.5zM623 1222.5q0 26.5 19.5 46t47.5 19.5q27 0 46.5 -19.5t19.5 -46t-19.5 -47t-46 -20.5t-47 20.5t-20.5 47z" />
<glyph unicode="&#x2019;" horiz-adv-x="413" d="M158 1157l172 258h92l-193 -258h-71zM178 0v979h55v-979h-55z" />
<glyph unicode="&#x201a;" horiz-adv-x="1173" d="M92 715q0 150 29 275.5t92 231t176 166t266 60.5q135 0 229.5 -49t186.5 -156l-43 -35q-82 94 -166 138.5t-207 44.5q-147 0 -250.5 -59.5t-156.5 -163t-75.5 -214t-22.5 -239.5t22.5 -239.5t75.5 -214t156.5 -163t250.5 -59.5q123 0 207 44t166 138l43 -35 q-88 -100 -177 -149t-210 -53l68 -148l-127 -237h-80l160 243l-66 142q-119 2 -214 44t-156.5 109.5t-101.5 162.5t-57.5 196.5t-17.5 218.5z" />
<glyph unicode="&#x201c;" horiz-adv-x="405" d="M47 1415h92l172 -258h-71zM178 0v979h55v-979h-55z" />
<glyph unicode="&#x201d;" horiz-adv-x="434" d="M-25 1116l203 299h76l205 -299h-68l-176 273l-176 -273h-64zM186 0v979h56v-979h-56z" />
<glyph unicode="&#x201e;" horiz-adv-x="1269" d="M154 0v1430h77l828 -1354v1354h57v-1430h-76l-829 1354v-1354h-57zM348 1688q63 74 141 73q59 0 160 -45t154 -45q55 0 98 49l4 6l39 -32q-63 -74 -139 -74q-59 0 -160.5 45t-152.5 45q-55 0 -99 -49l-4 -4z" />
<glyph unicode="&#x2022;" horiz-adv-x="419" d="M-43 1223q0 27 19.5 46t46.5 19q29 0 48 -19.5t19 -46t-20.5 -47t-47 -20.5t-46 19.5t-19.5 48.5zM178 0v979h55v-979h-55zM330 1223q0 27 19.5 46t45.5 19q29 0 48.5 -19.5t19.5 -46t-20.5 -47t-47 -20.5t-46 19.5t-19.5 48.5z" />
<glyph unicode="&#x2026;" horiz-adv-x="1302" d="M92 715q0 150 29 274.5t91 231t174 167t265.5 60.5t265 -60.5t174 -167t91 -231t28.5 -274.5q0 -147 -28.5 -273.5t-91 -233t-174 -166.5t-265 -60t-265.5 60t-174 166.5t-91 232.5t-29 274zM150 714.5q0 -100.5 12 -190.5t47 -181t89 -156.5t144 -106.5t209 -41t209 41 t144.5 106.5t89 156.5t47 181t12.5 190.5t-12.5 190.5t-47 181.5t-89 157t-144.5 106.5t-209 41t-209 -41t-144 -106.5t-89 -157t-47 -181.5t-12 -190.5zM358 1697.5q0 26.5 19.5 47t48.5 20.5q27 0 46.5 -19t19.5 -48q0 -27 -18.5 -46.5t-47.5 -19.5t-48.5 19.5t-19.5 46z M799 1697.5q0 26.5 20.5 47t47 20.5t47 -20.5t20.5 -47t-19.5 -46t-48 -19.5t-48 19.5t-19.5 46z" />
<glyph unicode="&#x202f;" horiz-adv-x="377" />
<glyph unicode="&#x2039;" horiz-adv-x="954" d="M92 266q0 129 93.5 203t232.5 74h153q139 0 201 65v117q0 100 -86 161.5t-186 61.5q-98 0 -181 -40t-118 -126l-49 17q88 201 354 200q125 0 222 -76.5t97 -191.5v-584l29 -145l-45 -12l-31 129q-88 -76 -165.5 -107.5t-176.5 -31.5q-152 0 -248 74.5t-96 211.5zM147 266 q0 -117 85 -176t204 -59q186 -1 336 149v363q-61 -33 -93 -41t-81 -8h-180q-111 0 -191 -57.5t-80 -170.5zM174 1231q63 74 143 74q59 0 163 -46.5t155 -46.5q59 0 100 52l4 4l41 -33q-68 -74 -143 -74q-59 0 -162.5 46t-155.5 46q-59 0 -100 -51l-4 -4z" />
<glyph unicode="&#x203a;" d="M92 487q0 508 410 508q407 0 407 -508q0 -506 -407 -505q-410 0 -410 505zM147 487.5q0 -75.5 7.5 -136t31 -122t61.5 -103.5t102.5 -67.5t150.5 -25.5q106 0 180 36.5t110.5 105.5t51 142.5t14.5 170t-14.5 170t-50 143t-109.5 106.5t-180 37q-88 0 -152.5 -25.5 t-102.5 -67.5t-61.5 -103.5t-31 -123t-7.5 -137zM209 1231q68 74 143 74q57 0 158.5 -46.5t157.5 -46.5q57 0 102 56l41 -33q-63 -74 -141 -74q-57 0 -159.5 46t-156.5 46q-59 0 -104 -55z" />
<glyph unicode="&#x205f;" horiz-adv-x="472" />
<glyph unicode="&#x20ac;" horiz-adv-x="1263" d="M33 0l549 1430h100l549 -1430h-60l-174 453h-731l-174 -453h-59zM287 504h690l-346 899zM342 1697.5q0 26.5 19.5 47t48.5 20.5q27 0 46 -19t19 -48q0 -27 -18.5 -46.5t-47 -19.5t-48 19.5t-19.5 46zM782 1697.5q0 26.5 20.5 47t47.5 20.5t47.5 -20.5t20.5 -47t-19.5 -46 t-48.5 -19.5t-48.5 19.5t-19.5 46z" />
<glyph unicode="&#x2122;" d="M92 487q0 508 410 508q407 0 407 -508q0 -506 -407 -505q-410 0 -410 505zM147 487.5q0 -75.5 7.5 -136t31 -122t61.5 -103.5t102.5 -67.5t150.5 -25.5q106 0 180 36.5t110.5 105.5t51 142.5t14.5 170t-14.5 170t-50 143t-109.5 106.5t-180 37q-88 0 -152.5 -25.5 t-102.5 -67.5t-61.5 -103.5t-31 -123t-7.5 -137zM258 1116l203 299h76l204 -299h-65l-178 273l-176 -273h-64z" />
<glyph unicode="&#x25fc;" horiz-adv-x="983" d="M0 0v983h983v-983h-983z" />
</font>
</defs>
</svg>
